<svg xmlns="http://www.w3.org/2000/svg" viewBox="0 0 32 32" fill="none">
  <rect width="32" height="32" rx="6" fill="#2a2a2e"/>
  <path d="M9 11c0-1.1.9-2 2-2h1.5a2 2 0 0 1 1.73 1l2.77 4.8a2 2 0 0 1 0 2l-2.77 4.8A2 2 0 0 1 12.5 23H11a2 2 0 0 1-2-2v-1.5a2 2 0 0 1 .52-1.34L11.5 16l-2.98-2.16A2 2 0 0 1 9 12.5V11Z" stroke="#c9a227" stroke-width="1.2" stroke-linejoin="round"/>
  <path d="M23 11c0-1.1-.9-2-2-2h-1.5a2 2 0 0 0-1.73 1l-2.77 4.8a2 2 0 0 0 0 2l2.77 4.8A2 2 0 0 0 19.5 23H21a2 2 0 0 0 2-2v-1.5a2 2 0 0 0-.52-1.34L19.5 16l2.98-2.16A2 2 0 0 0 23 12.5V11Z" stroke="#c9a227" stroke-width="1.2" stroke-linejoin="round"/>
  <circle cx="16" cy="16" r="1.8" fill="#c9a227"/>
</svg>
